
<svg width="267" height="33" viewBox="0 0 267 33" fill="none" xmlns="http://www.w3.org/2000/svg">
<path d="M84.2988 7.88361H74.3597V18.7832H84.2988V7.88361Z" fill="#294DEF"/>
<path d="M84.2988 29.6612C84.8881 29.6038 85.4558 29.5176 86.002 29.4027C89.6887 28.6703 92.1681 26.7963 93.3539 23.8452C93.6126 23.2205 93.8282 22.5097 93.9791 21.7558V21.6912C94.13 20.9157 94.2163 20.0756 94.2378 19.214V19.1709V18.7832H84.2988V29.6612Z" fill="#294DEF"/>
<path d="M97.2562 4.56638H84.2988V7.88364H94.2378V18.7832H97.2562V4.56638Z" fill="#FFD129"/>
<path d="M84.2126 29.6827C83.3933 29.6397 82.6387 29.5535 81.9272 29.4027C79.8575 28.9934 78.1758 28.0887 76.9685 26.7317C75.3731 24.9653 74.5107 22.3805 74.3597 19.0201V18.7832H71.3414V19.1063C71.7079 27.7441 75.7396 32.6338 84.191 33C84.2198 33 84.2485 33 84.2772 33C84.2988 32.9785 84.2988 32.9785 84.2988 32.9569V29.6612C84.2701 29.6612 84.2413 29.6684 84.2126 29.6827Z" fill="#FFD129"/>
<path d="M0 16.2629V4.76022H4.44132V16.1552C4.44132 19.4294 6.07986 21.1311 8.7964 21.1311C11.4914 21.1311 13.1299 19.494 13.1299 16.306V4.76022H17.5712V16.1337C17.5712 22.2297 14.1432 25.2238 8.73172 25.2238C3.32021 25.2238 0 22.1866 0 16.2629Z" fill="#294DEF"/>
<path d="M22.3791 13.2257H20.5681V9.62842H22.3791V8.63755C22.3791 6.95738 22.8103 5.70802 23.608 4.91102C24.4129 4.10683 25.5987 3.70474 27.1653 3.70474C28.5452 3.70474 29.4722 3.87707 30.27 4.13556V7.75439C29.6447 7.51744 29.0195 7.38819 28.2865 7.38819C27.2731 7.38819 26.691 7.90517 26.691 9.04683V9.64996H30.2484V13.2257H26.7557V24.9007H22.3791V13.2257Z" fill="#294DEF"/>
<path d="M31.2833 20.4634V20.4203C31.2833 17.0384 33.8489 15.4875 37.4925 15.4875C39.0448 15.4875 40.1659 15.746 41.2654 16.1337V15.8752C41.2654 14.0443 40.1443 13.0534 37.9668 13.0534C36.2851 13.0534 35.0993 13.355 33.698 13.8719L32.5984 10.5331C34.3016 9.80076 35.9617 9.30533 38.592 9.30533C40.9852 9.30533 42.71 9.93001 43.8095 11.0286C44.9522 12.1918 45.4696 13.8719 45.4696 15.9614V24.9008H41.2439V23.2421C40.1659 24.4053 38.6998 25.1808 36.5654 25.1808C33.6764 25.1808 31.2833 23.5222 31.2833 20.4634ZM41.3301 19.4725V18.6971C40.5755 18.3309 39.6053 18.1155 38.5274 18.1155C36.6517 18.1155 35.509 18.8478 35.509 20.248V20.2911C35.509 21.4758 36.4792 22.1651 37.9021 22.1651C39.9503 22.1651 41.3301 21.045 41.3301 19.4725Z" fill="#294DEF"/>
<path d="M48.488 17.2753V17.2107C48.488 12.8164 51.8729 9.19757 56.5945 9.19757C59.505 9.19757 61.316 10.1669 62.7606 11.7824L60.0656 14.6474C59.0954 13.6134 58.1252 12.9672 56.5513 12.9672C54.3738 12.9672 52.8215 14.8843 52.8215 17.1676V17.2107C52.8215 19.5802 54.3522 21.4757 56.7238 21.4757C58.2114 21.4757 59.2032 20.8511 60.2812 19.8387L62.8468 22.4235C61.3376 24.0606 59.6128 25.2454 56.5298 25.2454C51.8944 25.2454 48.488 21.6696 48.488 17.2753Z" fill="#294DEF"/>
<line x1="131.028" y1="4.5571" x2="131.028" y2="28.4234" stroke="#D4D4D4"/>
<path d="M176.043 26.1133L185.981 15.6072M179.583 7.28364L168.816 18.6274C168.336 19.1229 168.067 19.7949 168.067 20.4956C168.067 21.1962 168.336 21.8682 168.816 22.3637C169.296 22.8591 169.947 23.1374 170.625 23.1374C171.304 23.1374 171.955 22.8591 172.435 22.3637L183.202 11.02C184.161 10.0289 184.7 8.68497 184.7 7.28364C184.7 5.88231 184.161 4.53835 183.202 3.54731C182.242 2.55657 180.94 2 179.583 2C178.226 2 176.924 2.55657 175.964 3.54731L165.196 14.8897C163.756 16.3765 162.947 18.393 162.947 20.4956C162.947 22.5982 163.756 24.6146 165.196 26.1014C166.636 27.5881 168.589 28.4234 170.625 28.4234C172.662 28.4234 174.615 27.5881 176.055 26.1014" stroke="#294DEF" strokeWidth="3.5" strokeLinecap="round" strokeLinejoin="round"/>
<path d="M259.849 26.9189C258.554 26.9189 257.306 26.7689 256.105 26.4689C254.922 26.1501 253.984 25.7563 253.289 25.2875L254.753 22.1372C255.448 22.5685 256.264 22.9248 257.203 23.206C258.16 23.4686 259.098 23.5998 260.018 23.5998C261.032 23.5998 261.745 23.4779 262.158 23.2342C262.589 22.9904 262.805 22.6528 262.805 22.2216C262.805 21.8653 262.636 21.6027 262.298 21.434C261.979 21.2464 261.548 21.1058 261.003 21.012C260.459 20.9183 259.858 20.8245 259.202 20.7308C258.563 20.637 257.916 20.5151 257.259 20.3651C256.602 20.1963 256.002 19.9525 255.457 19.6338C254.913 19.315 254.472 18.8837 254.134 18.3399C253.815 17.7961 253.655 17.0929 253.655 16.2303C253.655 15.2739 253.928 14.4301 254.472 13.6987C255.035 12.9674 255.842 12.3955 256.893 11.9829C257.944 11.5516 259.202 11.336 260.666 11.336C261.698 11.336 262.749 11.4485 263.819 11.6735C264.889 11.8985 265.78 12.2267 266.493 12.658L265.029 15.7802C264.297 15.3489 263.556 15.0583 262.805 14.9082C262.073 14.7395 261.36 14.6551 260.666 14.6551C259.69 14.6551 258.976 14.7864 258.526 15.0489C258.075 15.3114 257.85 15.6489 257.85 16.0615C257.85 16.4365 258.01 16.7178 258.329 16.9053C258.667 17.0929 259.108 17.2429 259.652 17.3554C260.196 17.4679 260.788 17.571 261.426 17.6648C262.083 17.7398 262.739 17.8617 263.396 18.0305C264.053 18.1992 264.645 18.443 265.17 18.7618C265.714 19.0618 266.155 19.4837 266.493 20.0276C266.831 20.5526 267 21.2464 267 22.109C267 23.0466 266.718 23.8811 266.155 24.6124C265.592 25.325 264.776 25.8876 263.706 26.3001C262.655 26.7127 261.369 26.9189 259.849 26.9189Z" fill="#294DEF"/>
<path d="M245.441 26.6939V11.561H249.833V26.6939H245.441ZM247.637 9.45139C246.83 9.45139 246.173 9.21699 245.666 8.74819C245.159 8.27939 244.906 7.69807 244.906 7.00425C244.906 6.31042 245.159 5.7291 245.666 5.2603C246.173 4.7915 246.83 4.5571 247.637 4.5571C248.444 4.5571 249.101 4.78212 249.607 5.23217C250.114 5.66347 250.368 6.22604 250.368 6.91986C250.368 7.65119 250.114 8.26063 249.607 8.74819C249.119 9.21699 248.463 9.45139 247.637 9.45139Z" fill="#294DEF"/>
<path d="M236.511 26.6939V23.7405L236.229 23.0935V17.8054C236.229 16.8678 235.939 16.1365 235.357 15.6114C234.794 15.0864 233.921 14.8239 232.738 14.8239C231.931 14.8239 231.134 14.9551 230.345 15.2176C229.576 15.4614 228.919 15.799 228.375 16.2303L226.798 13.1643C227.624 12.583 228.619 12.1329 229.782 11.8141C230.946 11.4954 232.128 11.336 233.33 11.336C235.638 11.336 237.431 11.8798 238.707 12.9674C239.983 14.055 240.621 15.7521 240.621 18.0586V26.6939H236.511ZM231.894 26.9189C230.711 26.9189 229.698 26.722 228.853 26.3283C228.009 25.9157 227.361 25.3625 226.911 24.6687C226.46 23.9749 226.235 23.1967 226.235 22.3341C226.235 21.434 226.451 20.6464 226.883 19.9713C227.333 19.2962 228.037 18.7712 228.994 18.3961C229.951 18.0023 231.199 17.8054 232.738 17.8054H236.764V20.3651H233.217C232.185 20.3651 231.472 20.5339 231.077 20.8714C230.702 21.2089 230.514 21.6309 230.514 22.1372C230.514 22.6997 230.73 23.1498 231.162 23.4873C231.612 23.8061 232.222 23.9655 232.992 23.9655C233.724 23.9655 234.381 23.7967 234.963 23.4592C235.544 23.1029 235.967 22.5872 236.229 21.9121L236.905 23.9374C236.586 24.9125 236.004 25.6532 235.16 26.1595C234.315 26.6658 233.226 26.9189 231.894 26.9189Z" fill="#294DEF"/>
<path d="M220.335 26.919C218.552 26.919 217.163 26.4689 216.168 25.5688C215.174 24.65 214.676 23.2904 214.676 21.4902V8.21378H219.068V21.434C219.068 22.0716 219.237 22.5685 219.575 22.9248C219.913 23.2623 220.373 23.4311 220.954 23.4311C221.649 23.4311 222.24 23.2436 222.728 22.8685L223.911 25.9626C223.46 26.2814 222.916 26.5252 222.278 26.694C221.658 26.844 221.011 26.919 220.335 26.919ZM212.34 15.2739V11.8986H222.841V15.2739H212.34Z" fill="#294DEF"/>
<path d="M204.829 26.6939V11.561H209.221V26.6939H204.829ZM207.025 9.45139C206.218 9.45139 205.561 9.21699 205.054 8.74819C204.547 8.27939 204.294 7.69807 204.294 7.00425C204.294 6.31042 204.547 5.7291 205.054 5.2603C205.561 4.7915 206.218 4.5571 207.025 4.5571C207.832 4.5571 208.489 4.78212 208.996 5.23217C209.502 5.66347 209.756 6.22604 209.756 6.91986C209.756 7.65119 209.502 8.26063 208.996 8.74819C208.508 9.21699 207.851 9.45139 207.025 9.45139Z" fill="#294DEF"/>
<path d="M190.995 26.919C189.569 26.919 188.283 26.6002 187.138 25.9626C185.993 25.3063 185.083 24.3968 184.407 23.2342C183.75 22.0716 183.422 20.7027 183.422 19.1275C183.422 17.5336 183.75 16.1553 184.407 14.9926C185.083 13.83 185.993 12.9299 187.138 12.2923C188.283 11.6548 189.569 11.336 190.995 11.336C192.271 11.336 193.388 11.6173 194.345 12.1798C195.302 12.7424 196.044 13.5956 196.569 14.7395C197.095 15.8834 197.358 17.346 197.358 19.1275C197.358 20.8902 197.104 22.3528 196.597 23.5155C196.091 24.6593 195.359 25.5126 194.401 26.0751C193.463 26.6377 192.328 26.919 190.995 26.919ZM191.755 23.3186C192.468 23.3186 193.116 23.1498 193.698 22.8123C194.279 22.4747 194.739 21.9965 195.077 21.3777C195.434 20.7402 195.612 19.9901 195.612 19.1275C195.612 18.2461 195.434 17.496 195.077 16.8772C194.739 16.2584 194.279 15.7802 193.698 15.4427C193.116 15.1052 192.468 14.9364 191.755 14.9364C191.023 14.9364 190.366 15.1052 189.784 15.4427C189.203 15.7802 188.733 16.2584 188.377 16.8772C188.039 17.496 187.87 18.2461 187.87 19.1275C187.87 19.9901 188.039 20.7402 188.377 21.3777C188.733 21.9965 189.203 22.4747 189.784 22.8123C190.366 23.1498 191.023 23.3186 191.755 23.3186ZM195.725 26.6939V23.5998L195.809 19.0994L195.528 14.627V5.82288H199.919V26.6939H195.725Z" fill="#294DEF"/>
</svg>
